<?xml version="1.0"?><!DOCTYPE svg  PUBLIC '-//W3C//DTD SVG 1.1//EN'  'http://www.w3.org/Graphics/SVG/1.1/DTD/svg11.dtd'><svg height="8.4666mm" style="shape-rendering:geometricPrecision; text-rendering:geometricPrecision; image-rendering:optimizeQuality; fill-rule:evenodd; clip-rule:evenodd" version="1.1" viewBox="0 0 846.66 846.66" width="8.4666mm" xml:space="preserve" xmlns="http://www.w3.org/2000/svg" xmlns:xlink="http://www.w3.org/1999/xlink"><defs><style type="text/css">
   <![CDATA[
    .fil0 {fill:black;fill-rule:nonzero}
   ]]>
  </style></defs><g id="Layer_x0020_1"><path class="fil0" d="M467.83 340.59c27.2,0 27.2,41.35 0,41.35l-23.82 0 0 68.83c47.92,0 82.2,26.62 82.2,75.76 0,49.14 -34.28,75.76 -82.2,75.76l0 24.89c0,27.19 -41.36,27.19 -41.36,0l0 -24.89 -23.82 0c-27.19,0 -27.19,-41.35 0,-41.35l23.82 0 0 -68.82c-46.99,0 -82.2,-26.02 -82.2,-75.77 0,-49.75 35.2,-75.76 82.2,-75.76l0 -24.88c0,-27.2 41.36,-27.2 41.36,0l0 24.88 23.82 0zm211.25 334.55l0 -74.15 -96 0c-11.41,0 -20.67,-9.26 -20.67,-20.67l0 -77.78c0,-41.91 19.15,-81.15 51.81,-107.21 -14.78,-18.62 -23.62,-42.18 -23.62,-67.8 0,-60.28 48.87,-109.15 109.15,-109.15 60.28,0 109.15,48.87 109.15,109.15 0,25.62 -8.83,49.18 -23.61,67.8 32.66,26.06 51.81,65.3 51.81,107.21l0 77.78c0,11.41 -9.26,20.67 -20.68,20.67l-95.99 0 0 94.83c0,11.42 -9.26,20.67 -20.68,20.67l-552.84 0c-11.42,0 -20.68,-9.25 -20.68,-20.67l0 -183.04 -95.99 0c-11.42,0 -20.68,-9.26 -20.68,-20.68l0 -77.78c0,-41.91 19.15,-81.14 51.81,-107.2 -14.78,-18.62 -23.61,-42.18 -23.61,-67.8 0,-60.28 48.87,-109.15 109.15,-109.15 60.28,0 109.15,48.86 109.15,109.15 0,25.62 -8.84,49.18 -23.62,67.8 32.66,26.06 51.81,65.29 51.81,107.2l0 77.78c0,11.42 -9.26,20.68 -20.67,20.68l-96 0 0 162.36 511.5 0zm-436.18 -203.71l0 -57.11c0,-32.05 -16.15,-61.87 -42.64,-79.76 -15.78,8.85 -33.97,13.9 -53.35,13.9 -19.38,0 -37.58,-5.05 -53.35,-13.9 -26.49,17.88 -42.65,47.71 -42.65,79.76l0 57.11c64,0 127.99,0 191.99,0zm-95.99 -299.91c-37.45,0 -67.8,30.35 -67.8,67.8 0,37.44 30.35,67.79 67.8,67.79 37.44,0 67.79,-30.35 67.79,-67.79 0,-37.45 -30.35,-67.8 -67.79,-67.8zm606.19 251.26c-15.77,8.85 -33.97,13.9 -53.35,13.9 -19.37,0 -37.57,-5.05 -53.34,-13.9 -26.49,17.88 -42.65,47.7 -42.65,79.76l0 57.1 191.99 0 0 -57.1c0,-32.05 -16.16,-61.88 -42.65,-79.76zm-53.35 -163.05c-37.44,0 -67.79,30.36 -67.79,67.8 0,37.44 30.35,67.8 67.79,67.8 37.45,0 67.8,-30.36 67.8,-67.8 0,-37.44 -30.35,-67.8 -67.8,-67.8zm-297.1 122.21c-23.12,0 -40.84,7.67 -40.84,34.41 0,26.74 17.72,34.42 40.84,34.42l0 -68.83zm41.36 179c24.16,0 40.85,-8.26 40.85,-34.41 0,-26.14 -16.7,-34.41 -40.85,-34.41l0 68.82z"/></g></svg>